<svg xmlns="http://www.w3.org/2000/svg" width="760" height="464" viewBox="0 0 760 464" font-family="Helvetica, Arial, sans-serif">

  <style>
    .bg     { fill: #ffffff; }
    .fg     { fill: #1f2328; }
    .muted  { fill: #57606a; }
    .faint  { fill: #8b949e; }
    .grid   { stroke: #d0d7de; }
    .axis   { stroke: #1f2328; }
    .bar-0 { fill: #aab8c8; }
    .bar-1 { fill: #94a6ba; }
    .bar-2 { fill: #7e94ac; }
    .bar-3 { fill: #6c84a0; }
    .bar-4 { fill: #5c7494; }
    .bar-5 { fill: #4c6488; }
    .bar-6 { fill: #3f5878; }
    .bar-7 { fill: #344a68; }
    .bar-8 { fill: #2a3c58; }
    .bar-9 { fill: #1f2e48; }
    .bar-glazer { fill: #00a6e6; }
    @media (prefers-color-scheme: dark) {
      .bg     { fill: #0d1117; }
      .fg     { fill: #e6edf3; }
      .muted  { fill: #c9d1d9; }
      .faint  { fill: #8b949e; }
      .grid   { stroke: #30363d; }
      .axis   { stroke: #e6edf3; }
      .bar-0 { fill: #9aacc0; }
      .bar-1 { fill: #8398b0; }
      .bar-2 { fill: #6e84a0; }
      .bar-3 { fill: #5c7290; }
      .bar-4 { fill: #4c6080; }
      .bar-5 { fill: #3e5070; }
      .bar-6 { fill: #324060; }
      .bar-7 { fill: #283450; }
      .bar-8 { fill: #1f2840; }
      .bar-9 { fill: #161c30; }
      .bar-glazer { fill: #00b5fe; }
    }
  </style>

<rect width="760" height="464" class="bg"/>
<text x="380.0" y="26" text-anchor="middle" font-size="18" font-weight="bold" class="fg">Medium input size (time in µs, lower is better)</text>
<text x="190.0" y="66.0" text-anchor="middle" font-size="13" font-weight="bold" class="fg">JSON decode — 1.3K</text>
<line x1="50.0" y1="148.0" x2="370.0" y2="148.0" class="grid" stroke-width="1"/>
<text x="44.0" y="151.0" text-anchor="end" font-size="9" class="muted">0</text>
<line x1="50.0" y1="121.3" x2="370.0" y2="121.3" class="grid" stroke-width="1"/>
<text x="44.0" y="124.3" text-anchor="end" font-size="9" class="muted">10</text>
<line x1="50.0" y1="94.7" x2="370.0" y2="94.7" class="grid" stroke-width="1"/>
<text x="44.0" y="97.7" text-anchor="end" font-size="9" class="muted">20</text>
<line x1="50.0" y1="68.0" x2="370.0" y2="68.0" class="grid" stroke-width="1"/>
<text x="44.0" y="71.0" text-anchor="end" font-size="9" class="muted">30</text>
<rect x="56.0" y="137.3" width="28.9" height="10.7" class="bar-glazer"><title>glazer: 4 (decode)</title></rect>
<text x="70.4" y="134.3" text-anchor="middle" font-size="8" class="muted">4</text>
<text x="70.4" y="158.0" text-anchor="end" font-size="9" class="fg" font-weight="bold" transform="rotate(-35 70.4,158.0)">glazer</text>
<rect x="90.9" y="135.5" width="28.9" height="12.5" class="bar-1"><title>glazer+utf8: 4.7 (decode)</title></rect>
<text x="105.3" y="132.5" text-anchor="middle" font-size="8" class="muted">4.7</text>
<text x="105.3" y="158.0" text-anchor="end" font-size="9" class="fg" transform="rotate(-35 105.3,158.0)">glazer+utf8</text>
<rect x="125.8" y="136.3" width="28.9" height="11.7" class="bar-2"><title>torque: 4.4 (decode)</title></rect>
<text x="140.2" y="133.3" text-anchor="middle" font-size="8" class="muted">4.4</text>
<text x="140.2" y="158.0" text-anchor="end" font-size="9" class="fg" transform="rotate(-35 140.2,158.0)">torque</text>
<rect x="160.7" y="128.3" width="28.9" height="19.7" class="bar-3"><title>simdjsone: 7.4 (decode)</title></rect>
<text x="175.1" y="125.3" text-anchor="middle" font-size="8" class="muted">7.4</text>
<text x="175.1" y="158.0" text-anchor="end" font-size="9" class="fg" transform="rotate(-35 175.1,158.0)">simdjsone</text>
<rect x="195.6" y="128.0" width="28.9" height="20.0" class="bar-4"><title>jiffy: 7.5 (decode)</title></rect>
<text x="210.0" y="125.0" text-anchor="middle" font-size="8" class="muted">7.5</text>
<text x="210.0" y="158.0" text-anchor="end" font-size="9" class="fg" transform="rotate(-35 210.0,158.0)">jiffy</text>
<rect x="230.4" y="106.7" width="28.9" height="41.3" class="bar-5"><title>jason: 15.5 (decode)</title></rect>
<text x="244.9" y="103.7" text-anchor="middle" font-size="8" class="muted">15.5</text>
<text x="244.9" y="158.0" text-anchor="end" font-size="9" class="fg" transform="rotate(-35 244.9,158.0)">jason</text>
<rect x="265.3" y="114.9" width="28.9" height="33.1" class="bar-6"><title>json: 12.4 (decode)</title></rect>
<text x="279.8" y="111.9" text-anchor="middle" font-size="8" class="muted">12.4</text>
<text x="279.8" y="158.0" text-anchor="end" font-size="9" class="fg" transform="rotate(-35 279.8,158.0)">json</text>
<rect x="300.2" y="83.2" width="28.9" height="64.8" class="bar-7"><title>thoas: 24.3 (decode)</title></rect>
<text x="314.7" y="80.2" text-anchor="middle" font-size="8" class="muted">24.3</text>
<text x="314.7" y="158.0" text-anchor="end" font-size="9" class="fg" transform="rotate(-35 314.7,158.0)">thoas</text>
<rect x="335.1" y="114.9" width="28.9" height="33.1" class="bar-8"><title>euneus: 12.4 (decode)</title></rect>
<text x="349.6" y="111.9" text-anchor="middle" font-size="8" class="muted">12.4</text>
<text x="349.6" y="158.0" text-anchor="end" font-size="9" class="fg" transform="rotate(-35 349.6,158.0)">euneus</text>
<line x1="50.0" y1="148.0" x2="370.0" y2="148.0" class="axis" stroke-width="1"/>
<text x="570.0" y="66.0" text-anchor="middle" font-size="13" font-weight="bold" class="fg">JSON encode — 1.3K</text>
<line x1="430.0" y1="148.0" x2="750.0" y2="148.0" class="grid" stroke-width="1"/>
<text x="424.0" y="151.0" text-anchor="end" font-size="9" class="muted">0</text>
<line x1="430.0" y1="128.0" x2="750.0" y2="128.0" class="grid" stroke-width="1"/>
<text x="424.0" y="131.0" text-anchor="end" font-size="9" class="muted">5</text>
<line x1="430.0" y1="108.0" x2="750.0" y2="108.0" class="grid" stroke-width="1"/>
<text x="424.0" y="111.0" text-anchor="end" font-size="9" class="muted">10</text>
<line x1="430.0" y1="88.0" x2="750.0" y2="88.0" class="grid" stroke-width="1"/>
<text x="424.0" y="91.0" text-anchor="end" font-size="9" class="muted">15</text>
<line x1="430.0" y1="68.0" x2="750.0" y2="68.0" class="grid" stroke-width="1"/>
<text x="424.0" y="71.0" text-anchor="end" font-size="9" class="muted">20</text>
<rect x="436.0" y="136.8" width="28.9" height="11.2" class="bar-glazer"><title>glazer: 2.8 (encode)</title></rect>
<text x="450.4" y="133.8" text-anchor="middle" font-size="8" class="muted">2.8</text>
<text x="450.4" y="158.0" text-anchor="end" font-size="9" class="fg" font-weight="bold" transform="rotate(-35 450.4,158.0)">glazer</text>
<rect x="470.9" y="136.4" width="28.9" height="11.6" class="bar-1"><title>glazer+utf8: 2.9 (encode)</title></rect>
<text x="485.3" y="133.4" text-anchor="middle" font-size="8" class="muted">2.9</text>
<text x="485.3" y="158.0" text-anchor="end" font-size="9" class="fg" transform="rotate(-35 485.3,158.0)">glazer+utf8</text>
<rect x="505.8" y="138.4" width="28.9" height="9.6" class="bar-2"><title>torque: 2.4 (encode)</title></rect>
<text x="520.2" y="135.4" text-anchor="middle" font-size="8" class="muted">2.4</text>
<text x="520.2" y="158.0" text-anchor="end" font-size="9" class="fg" transform="rotate(-35 520.2,158.0)">torque</text>
<rect x="540.7" y="114.4" width="28.9" height="33.6" class="bar-3"><title>simdjsone: 8.4 (encode)</title></rect>
<text x="555.1" y="111.4" text-anchor="middle" font-size="8" class="muted">8.4</text>
<text x="555.1" y="158.0" text-anchor="end" font-size="9" class="fg" transform="rotate(-35 555.1,158.0)">simdjsone</text>
<rect x="575.6" y="124.8" width="28.9" height="23.2" class="bar-4"><title>jiffy: 5.8 (encode)</title></rect>
<text x="590.0" y="121.8" text-anchor="middle" font-size="8" class="muted">5.8</text>
<text x="590.0" y="158.0" text-anchor="end" font-size="9" class="fg" transform="rotate(-35 590.0,158.0)">jiffy</text>
<rect x="610.4" y="74.0" width="28.9" height="74.0" class="bar-5"><title>jason: 18.5 (encode)</title></rect>
<text x="624.9" y="71.0" text-anchor="middle" font-size="8" class="muted">18.5</text>
<text x="624.9" y="158.0" text-anchor="end" font-size="9" class="fg" transform="rotate(-35 624.9,158.0)">jason</text>
<rect x="645.3" y="104.8" width="28.9" height="43.2" class="bar-6"><title>json: 10.8 (encode)</title></rect>
<text x="659.8" y="101.8" text-anchor="middle" font-size="8" class="muted">10.8</text>
<text x="659.8" y="158.0" text-anchor="end" font-size="9" class="fg" transform="rotate(-35 659.8,158.0)">json</text>
<rect x="680.2" y="71.6" width="28.9" height="76.4" class="bar-7"><title>thoas: 19.1 (encode)</title></rect>
<text x="694.7" y="68.6" text-anchor="middle" font-size="8" class="muted">19.1</text>
<text x="694.7" y="158.0" text-anchor="end" font-size="9" class="fg" transform="rotate(-35 694.7,158.0)">thoas</text>
<rect x="715.1" y="103.2" width="28.9" height="44.8" class="bar-8"><title>euneus: 11.2 (encode)</title></rect>
<text x="729.6" y="100.2" text-anchor="middle" font-size="8" class="muted">11.2</text>
<text x="729.6" y="158.0" text-anchor="end" font-size="9" class="fg" transform="rotate(-35 729.6,158.0)">euneus</text>
<line x1="430.0" y1="148.0" x2="750.0" y2="148.0" class="axis" stroke-width="1"/>
<text x="190.0" y="204.0" text-anchor="middle" font-size="13" font-weight="bold" class="fg">YAML decode — 1.3K</text>
<line x1="50.0" y1="286.0" x2="370.0" y2="286.0" class="grid" stroke-width="1"/>
<text x="44.0" y="289.0" text-anchor="end" font-size="9" class="muted">0</text>
<line x1="50.0" y1="259.3" x2="370.0" y2="259.3" class="grid" stroke-width="1"/>
<text x="44.0" y="262.3" text-anchor="end" font-size="9" class="muted">500</text>
<line x1="50.0" y1="232.7" x2="370.0" y2="232.7" class="grid" stroke-width="1"/>
<text x="44.0" y="235.7" text-anchor="end" font-size="9" class="muted">1000</text>
<line x1="50.0" y1="206.0" x2="370.0" y2="206.0" class="grid" stroke-width="1"/>
<text x="44.0" y="209.0" text-anchor="end" font-size="9" class="muted">1500</text>
<rect x="56.0" y="285.0" width="56.8" height="1.0" class="bar-glazer"><title>glazer: 18.7 (decode)</title></rect>
<text x="84.4" y="282.0" text-anchor="middle" font-size="8" class="muted">18.7</text>
<text x="84.4" y="296.0" text-anchor="end" font-size="9" class="fg" font-weight="bold" transform="rotate(-35 84.4,296.0)">glazer</text>
<rect x="118.8" y="281.6" width="56.8" height="4.4" class="bar-1"><title>yaml_rustler: 83.1 (decode)</title></rect>
<text x="147.2" y="278.6" text-anchor="middle" font-size="8" class="muted">83.1</text>
<text x="147.2" y="296.0" text-anchor="end" font-size="9" class="fg" transform="rotate(-35 147.2,296.0)">yaml_rustler</text>
<rect x="181.6" y="280.9" width="56.8" height="5.1" class="bar-2"><title>fast_yaml: 96.4 (decode)</title></rect>
<text x="210.0" y="277.9" text-anchor="middle" font-size="8" class="muted">96.4</text>
<text x="210.0" y="296.0" text-anchor="end" font-size="9" class="fg" transform="rotate(-35 210.0,296.0)">fast_yaml</text>
<rect x="244.4" y="223.2" width="56.8" height="62.8" class="bar-3"><title>yamerl: 1176.9 (decode)</title></rect>
<text x="272.8" y="220.2" text-anchor="middle" font-size="8" class="muted">1176.9</text>
<text x="272.8" y="296.0" text-anchor="end" font-size="9" class="fg" transform="rotate(-35 272.8,296.0)">yamerl</text>
<text x="335.6" y="282.0" text-anchor="middle" font-size="8" class="faint">N/A</text>
<text x="335.6" y="296.0" text-anchor="end" font-size="9" class="fg" transform="rotate(-35 335.6,296.0)">ymlr</text>
<line x1="50.0" y1="286.0" x2="370.0" y2="286.0" class="axis" stroke-width="1"/>
<text x="570.0" y="204.0" text-anchor="middle" font-size="13" font-weight="bold" class="fg">YAML encode — 1.3K</text>
<line x1="430.0" y1="286.0" x2="750.0" y2="286.0" class="grid" stroke-width="1"/>
<text x="424.0" y="289.0" text-anchor="end" font-size="9" class="muted">0</text>
<line x1="430.0" y1="259.3" x2="750.0" y2="259.3" class="grid" stroke-width="1"/>
<text x="424.0" y="262.3" text-anchor="end" font-size="9" class="muted">20</text>
<line x1="430.0" y1="232.7" x2="750.0" y2="232.7" class="grid" stroke-width="1"/>
<text x="424.0" y="235.7" text-anchor="end" font-size="9" class="muted">40</text>
<line x1="430.0" y1="206.0" x2="750.0" y2="206.0" class="grid" stroke-width="1"/>
<text x="424.0" y="209.0" text-anchor="end" font-size="9" class="muted">60</text>
<rect x="436.0" y="279.6" width="56.8" height="6.4" class="bar-glazer"><title>glazer: 4.8 (encode)</title></rect>
<text x="464.4" y="276.6" text-anchor="middle" font-size="8" class="muted">4.8</text>
<text x="464.4" y="296.0" text-anchor="end" font-size="9" class="fg" font-weight="bold" transform="rotate(-35 464.4,296.0)">glazer</text>
<text x="527.2" y="282.0" text-anchor="middle" font-size="8" class="faint">N/A</text>
<text x="527.2" y="296.0" text-anchor="end" font-size="9" class="fg" transform="rotate(-35 527.2,296.0)">yaml_rustler</text>
<rect x="561.6" y="236.9" width="56.8" height="49.1" class="bar-2"><title>fast_yaml: 36.8 (encode)</title></rect>
<text x="590.0" y="233.9" text-anchor="middle" font-size="8" class="muted">36.8</text>
<text x="590.0" y="296.0" text-anchor="end" font-size="9" class="fg" transform="rotate(-35 590.0,296.0)">fast_yaml</text>
<text x="652.8" y="282.0" text-anchor="middle" font-size="8" class="faint">N/A</text>
<text x="652.8" y="296.0" text-anchor="end" font-size="9" class="fg" transform="rotate(-35 652.8,296.0)">yamerl</text>
<rect x="687.2" y="219.2" width="56.8" height="66.8" class="bar-4"><title>ymlr: 50.1 (encode)</title></rect>
<text x="715.6" y="216.2" text-anchor="middle" font-size="8" class="muted">50.1</text>
<text x="715.6" y="296.0" text-anchor="end" font-size="9" class="fg" transform="rotate(-35 715.6,296.0)">ymlr</text>
<line x1="430.0" y1="286.0" x2="750.0" y2="286.0" class="axis" stroke-width="1"/>
<text x="190.0" y="342.0" text-anchor="middle" font-size="13" font-weight="bold" class="fg">CSV decode — 130.9K</text>
<line x1="50.0" y1="424.0" x2="370.0" y2="424.0" class="grid" stroke-width="1"/>
<text x="44.0" y="427.0" text-anchor="end" font-size="9" class="muted">0</text>
<line x1="50.0" y1="404.0" x2="370.0" y2="404.0" class="grid" stroke-width="1"/>
<text x="44.0" y="407.0" text-anchor="end" font-size="9" class="muted">2000</text>
<line x1="50.0" y1="384.0" x2="370.0" y2="384.0" class="grid" stroke-width="1"/>
<text x="44.0" y="387.0" text-anchor="end" font-size="9" class="muted">4000</text>
<line x1="50.0" y1="364.0" x2="370.0" y2="364.0" class="grid" stroke-width="1"/>
<text x="44.0" y="367.0" text-anchor="end" font-size="9" class="muted">6000</text>
<line x1="50.0" y1="344.0" x2="370.0" y2="344.0" class="grid" stroke-width="1"/>
<text x="44.0" y="347.0" text-anchor="end" font-size="9" class="muted">8000</text>
<rect x="56.0" y="414.8" width="56.8" height="9.2" class="bar-glazer"><title>glazer: 917.9 (decode)</title></rect>
<text x="84.4" y="411.8" text-anchor="middle" font-size="8" class="muted">917.9</text>
<text x="84.4" y="434.0" text-anchor="end" font-size="9" class="fg" font-weight="bold" transform="rotate(-35 84.4,434.0)">glazer</text>
<rect x="118.8" y="412.3" width="56.8" height="11.7" class="bar-1"><title>rusty_csv: 1167 (decode)</title></rect>
<text x="147.2" y="409.3" text-anchor="middle" font-size="8" class="muted">1167</text>
<text x="147.2" y="434.0" text-anchor="end" font-size="9" class="fg" transform="rotate(-35 147.2,434.0)">rusty_csv</text>
<rect x="181.6" y="363.6" width="56.8" height="60.4" class="bar-2"><title>nimble_csv: 6042.9 (decode)</title></rect>
<text x="210.0" y="360.6" text-anchor="middle" font-size="8" class="muted">6042.9</text>
<text x="210.0" y="434.0" text-anchor="end" font-size="9" class="fg" transform="rotate(-35 210.0,434.0)">nimble_csv</text>
<rect x="244.4" y="365.3" width="56.8" height="58.7" class="bar-3"><title>csv: 5874.3 (decode)</title></rect>
<text x="272.8" y="362.3" text-anchor="middle" font-size="8" class="muted">5874.3</text>
<text x="272.8" y="434.0" text-anchor="end" font-size="9" class="fg" transform="rotate(-35 272.8,434.0)">csv</text>
<rect x="307.2" y="408.7" width="56.8" height="15.3" class="bar-4"><title>erl_csv: 1528.7 (decode)</title></rect>
<text x="335.6" y="405.7" text-anchor="middle" font-size="8" class="muted">1528.7</text>
<text x="335.6" y="434.0" text-anchor="end" font-size="9" class="fg" transform="rotate(-35 335.6,434.0)">erl_csv</text>
<line x1="50.0" y1="424.0" x2="370.0" y2="424.0" class="axis" stroke-width="1"/>
<text x="570.0" y="342.0" text-anchor="middle" font-size="13" font-weight="bold" class="fg">CSV encode — 130.9K</text>
<line x1="430.0" y1="424.0" x2="750.0" y2="424.0" class="grid" stroke-width="1"/>
<text x="424.0" y="427.0" text-anchor="end" font-size="9" class="muted">0</text>
<line x1="430.0" y1="397.3" x2="750.0" y2="397.3" class="grid" stroke-width="1"/>
<text x="424.0" y="400.3" text-anchor="end" font-size="9" class="muted">5000</text>
<line x1="430.0" y1="370.7" x2="750.0" y2="370.7" class="grid" stroke-width="1"/>
<text x="424.0" y="373.7" text-anchor="end" font-size="9" class="muted">10000</text>
<line x1="430.0" y1="344.0" x2="750.0" y2="344.0" class="grid" stroke-width="1"/>
<text x="424.0" y="347.0" text-anchor="end" font-size="9" class="muted">15000</text>
<rect x="436.0" y="421.7" width="56.8" height="2.3" class="bar-glazer"><title>glazer: 428.4 (encode)</title></rect>
<text x="464.4" y="418.7" text-anchor="middle" font-size="8" class="muted">428.4</text>
<text x="464.4" y="434.0" text-anchor="end" font-size="9" class="fg" font-weight="bold" transform="rotate(-35 464.4,434.0)">glazer</text>
<text x="527.2" y="420.0" text-anchor="middle" font-size="8" class="faint">N/A</text>
<text x="527.2" y="434.0" text-anchor="end" font-size="9" class="fg" transform="rotate(-35 527.2,434.0)">rusty_csv</text>
<rect x="561.6" y="406.1" width="56.8" height="17.9" class="bar-2"><title>nimble_csv: 3355.5 (encode)</title></rect>
<text x="590.0" y="403.1" text-anchor="middle" font-size="8" class="muted">3355.5</text>
<text x="590.0" y="434.0" text-anchor="end" font-size="9" class="fg" transform="rotate(-35 590.0,434.0)">nimble_csv</text>
<rect x="624.4" y="348.1" width="56.8" height="75.9" class="bar-3"><title>csv: 14229.1 (encode)</title></rect>
<text x="652.8" y="345.1" text-anchor="middle" font-size="8" class="muted">14229.1</text>
<text x="652.8" y="434.0" text-anchor="end" font-size="9" class="fg" transform="rotate(-35 652.8,434.0)">csv</text>
<rect x="687.2" y="415.6" width="56.8" height="8.4" class="bar-4"><title>erl_csv: 1574.8 (encode)</title></rect>
<text x="715.6" y="412.6" text-anchor="middle" font-size="8" class="muted">1574.8</text>
<text x="715.6" y="434.0" text-anchor="end" font-size="9" class="fg" transform="rotate(-35 715.6,434.0)">erl_csv</text>
<line x1="430.0" y1="424.0" x2="750.0" y2="424.0" class="axis" stroke-width="1"/>
</svg>