<svg xmlns="http://www.w3.org/2000/svg" width="760" height="464" viewBox="0 0 760 464" font-family="Helvetica, Arial, sans-serif">

  <style>
    .bg     { fill: #ffffff; }
    .fg     { fill: #1f2328; }
    .muted  { fill: #57606a; }
    .faint  { fill: #8b949e; }
    .grid   { stroke: #d0d7de; }
    .axis   { stroke: #1f2328; }
    .bar-0 { fill: #aab8c8; }
    .bar-1 { fill: #94a6ba; }
    .bar-2 { fill: #7e94ac; }
    .bar-3 { fill: #6c84a0; }
    .bar-4 { fill: #5c7494; }
    .bar-5 { fill: #4c6488; }
    .bar-6 { fill: #3f5878; }
    .bar-7 { fill: #344a68; }
    .bar-8 { fill: #2a3c58; }
    .bar-9 { fill: #1f2e48; }
    .bar-glazer { fill: #00a6e6; }
    @media (prefers-color-scheme: dark) {
      .bg     { fill: #0d1117; }
      .fg     { fill: #e6edf3; }
      .muted  { fill: #c9d1d9; }
      .faint  { fill: #8b949e; }
      .grid   { stroke: #30363d; }
      .axis   { stroke: #e6edf3; }
      .bar-0 { fill: #9aacc0; }
      .bar-1 { fill: #8398b0; }
      .bar-2 { fill: #6e84a0; }
      .bar-3 { fill: #5c7290; }
      .bar-4 { fill: #4c6080; }
      .bar-5 { fill: #3e5070; }
      .bar-6 { fill: #324060; }
      .bar-7 { fill: #283450; }
      .bar-8 { fill: #1f2840; }
      .bar-9 { fill: #161c30; }
      .bar-glazer { fill: #00b5fe; }
    }
  </style>

<rect width="760" height="464" class="bg"/>
<text x="380.0" y="26" text-anchor="middle" font-size="18" font-weight="bold" class="fg">Small input size (time in µs, lower is better)</text>
<text x="190.0" y="66.0" text-anchor="middle" font-size="13" font-weight="bold" class="fg">JSON decode — 0.1K</text>
<line x1="50.0" y1="148.0" x2="370.0" y2="148.0" class="grid" stroke-width="1"/>
<text x="44.0" y="151.0" text-anchor="end" font-size="9" class="muted">0</text>
<line x1="50.0" y1="121.3" x2="370.0" y2="121.3" class="grid" stroke-width="1"/>
<text x="44.0" y="124.3" text-anchor="end" font-size="9" class="muted">1</text>
<line x1="50.0" y1="94.7" x2="370.0" y2="94.7" class="grid" stroke-width="1"/>
<text x="44.0" y="97.7" text-anchor="end" font-size="9" class="muted">2</text>
<line x1="50.0" y1="68.0" x2="370.0" y2="68.0" class="grid" stroke-width="1"/>
<text x="44.0" y="71.0" text-anchor="end" font-size="9" class="muted">3</text>
<rect x="56.0" y="126.7" width="33.2" height="21.3" class="bar-glazer"><title>glazer: 0.8 (decode)</title></rect>
<text x="72.6" y="123.7" text-anchor="middle" font-size="8" class="muted">0.8</text>
<text x="72.6" y="158.0" text-anchor="end" font-size="9" class="fg" font-weight="bold" transform="rotate(-35 72.6,158.0)">glazer</text>
<rect x="95.2" y="121.3" width="33.2" height="26.7" class="bar-1"><title>torque: 1 (decode)</title></rect>
<text x="111.9" y="118.3" text-anchor="middle" font-size="8" class="muted">1</text>
<text x="111.9" y="158.0" text-anchor="end" font-size="9" class="fg" transform="rotate(-35 111.9,158.0)">torque</text>
<rect x="134.5" y="108.0" width="33.2" height="40.0" class="bar-2"><title>simdjsone: 1.5 (decode)</title></rect>
<text x="151.1" y="105.0" text-anchor="middle" font-size="8" class="muted">1.5</text>
<text x="151.1" y="158.0" text-anchor="end" font-size="9" class="fg" transform="rotate(-35 151.1,158.0)">simdjsone</text>
<rect x="173.8" y="89.3" width="33.2" height="58.7" class="bar-3"><title>jiffy: 2.2 (decode)</title></rect>
<text x="190.4" y="86.3" text-anchor="middle" font-size="8" class="muted">2.2</text>
<text x="190.4" y="158.0" text-anchor="end" font-size="9" class="fg" transform="rotate(-35 190.4,158.0)">jiffy</text>
<rect x="213.0" y="76.0" width="33.2" height="72.0" class="bar-4"><title>jason: 2.7 (decode)</title></rect>
<text x="229.6" y="73.0" text-anchor="middle" font-size="8" class="muted">2.7</text>
<text x="229.6" y="158.0" text-anchor="end" font-size="9" class="fg" transform="rotate(-35 229.6,158.0)">jason</text>
<rect x="252.2" y="89.3" width="33.2" height="58.7" class="bar-5"><title>json: 2.2 (decode)</title></rect>
<text x="268.9" y="86.3" text-anchor="middle" font-size="8" class="muted">2.2</text>
<text x="268.9" y="158.0" text-anchor="end" font-size="9" class="fg" transform="rotate(-35 268.9,158.0)">json</text>
<rect x="291.5" y="81.3" width="33.2" height="66.7" class="bar-6"><title>thoas: 2.5 (decode)</title></rect>
<text x="308.1" y="78.3" text-anchor="middle" font-size="8" class="muted">2.5</text>
<text x="308.1" y="158.0" text-anchor="end" font-size="9" class="fg" transform="rotate(-35 308.1,158.0)">thoas</text>
<rect x="330.8" y="73.3" width="33.2" height="74.7" class="bar-7"><title>euneus: 2.8 (decode)</title></rect>
<text x="347.4" y="70.3" text-anchor="middle" font-size="8" class="muted">2.8</text>
<text x="347.4" y="158.0" text-anchor="end" font-size="9" class="fg" transform="rotate(-35 347.4,158.0)">euneus</text>
<line x1="50.0" y1="148.0" x2="370.0" y2="148.0" class="axis" stroke-width="1"/>
<text x="570.0" y="66.0" text-anchor="middle" font-size="13" font-weight="bold" class="fg">JSON encode — 0.1K</text>
<line x1="430.0" y1="148.0" x2="750.0" y2="148.0" class="grid" stroke-width="1"/>
<text x="424.0" y="151.0" text-anchor="end" font-size="9" class="muted">0</text>
<line x1="430.0" y1="121.3" x2="750.0" y2="121.3" class="grid" stroke-width="1"/>
<text x="424.0" y="124.3" text-anchor="end" font-size="9" class="muted">1</text>
<line x1="430.0" y1="94.7" x2="750.0" y2="94.7" class="grid" stroke-width="1"/>
<text x="424.0" y="97.7" text-anchor="end" font-size="9" class="muted">2</text>
<line x1="430.0" y1="68.0" x2="750.0" y2="68.0" class="grid" stroke-width="1"/>
<text x="424.0" y="71.0" text-anchor="end" font-size="9" class="muted">3</text>
<rect x="436.0" y="124.0" width="33.2" height="24.0" class="bar-glazer"><title>glazer: 0.9 (encode)</title></rect>
<text x="452.6" y="121.0" text-anchor="middle" font-size="8" class="muted">0.9</text>
<text x="452.6" y="158.0" text-anchor="end" font-size="9" class="fg" font-weight="bold" transform="rotate(-35 452.6,158.0)">glazer</text>
<rect x="475.2" y="124.0" width="33.2" height="24.0" class="bar-1"><title>torque: 0.9 (encode)</title></rect>
<text x="491.9" y="121.0" text-anchor="middle" font-size="8" class="muted">0.9</text>
<text x="491.9" y="158.0" text-anchor="end" font-size="9" class="fg" transform="rotate(-35 491.9,158.0)">torque</text>
<rect x="514.5" y="89.3" width="33.2" height="58.7" class="bar-2"><title>simdjsone: 2.2 (encode)</title></rect>
<text x="531.1" y="86.3" text-anchor="middle" font-size="8" class="muted">2.2</text>
<text x="531.1" y="158.0" text-anchor="end" font-size="9" class="fg" transform="rotate(-35 531.1,158.0)">simdjsone</text>
<rect x="553.8" y="92.0" width="33.2" height="56.0" class="bar-3"><title>jiffy: 2.1 (encode)</title></rect>
<text x="570.4" y="89.0" text-anchor="middle" font-size="8" class="muted">2.1</text>
<text x="570.4" y="158.0" text-anchor="end" font-size="9" class="fg" transform="rotate(-35 570.4,158.0)">jiffy</text>
<rect x="593.0" y="86.7" width="33.2" height="61.3" class="bar-4"><title>jason: 2.3 (encode)</title></rect>
<text x="609.6" y="83.7" text-anchor="middle" font-size="8" class="muted">2.3</text>
<text x="609.6" y="158.0" text-anchor="end" font-size="9" class="fg" transform="rotate(-35 609.6,158.0)">jason</text>
<rect x="632.2" y="100.0" width="33.2" height="48.0" class="bar-5"><title>json: 1.8 (encode)</title></rect>
<text x="648.9" y="97.0" text-anchor="middle" font-size="8" class="muted">1.8</text>
<text x="648.9" y="158.0" text-anchor="end" font-size="9" class="fg" transform="rotate(-35 648.9,158.0)">json</text>
<rect x="671.5" y="86.7" width="33.2" height="61.3" class="bar-6"><title>thoas: 2.3 (encode)</title></rect>
<text x="688.1" y="83.7" text-anchor="middle" font-size="8" class="muted">2.3</text>
<text x="688.1" y="158.0" text-anchor="end" font-size="9" class="fg" transform="rotate(-35 688.1,158.0)">thoas</text>
<rect x="710.8" y="86.7" width="33.2" height="61.3" class="bar-7"><title>euneus: 2.3 (encode)</title></rect>
<text x="727.4" y="83.7" text-anchor="middle" font-size="8" class="muted">2.3</text>
<text x="727.4" y="158.0" text-anchor="end" font-size="9" class="fg" transform="rotate(-35 727.4,158.0)">euneus</text>
<line x1="430.0" y1="148.0" x2="750.0" y2="148.0" class="axis" stroke-width="1"/>
<text x="190.0" y="204.0" text-anchor="middle" font-size="13" font-weight="bold" class="fg">YAML decode — 0.1K</text>
<line x1="50.0" y1="286.0" x2="370.0" y2="286.0" class="grid" stroke-width="1"/>
<text x="44.0" y="289.0" text-anchor="end" font-size="9" class="muted">0</text>
<line x1="50.0" y1="259.3" x2="370.0" y2="259.3" class="grid" stroke-width="1"/>
<text x="44.0" y="262.3" text-anchor="end" font-size="9" class="muted">200</text>
<line x1="50.0" y1="232.7" x2="370.0" y2="232.7" class="grid" stroke-width="1"/>
<text x="44.0" y="235.7" text-anchor="end" font-size="9" class="muted">400</text>
<line x1="50.0" y1="206.0" x2="370.0" y2="206.0" class="grid" stroke-width="1"/>
<text x="44.0" y="209.0" text-anchor="end" font-size="9" class="muted">600</text>
<rect x="56.0" y="285.7" width="56.8" height="0.3" class="bar-glazer"><title>glazer: 1.9 (decode)</title></rect>
<text x="84.4" y="282.7" text-anchor="middle" font-size="8" class="muted">1.9</text>
<text x="84.4" y="296.0" text-anchor="end" font-size="9" class="fg" font-weight="bold" transform="rotate(-35 84.4,296.0)">glazer</text>
<rect x="118.8" y="284.4" width="56.8" height="1.6" class="bar-1"><title>yaml_rustler: 12.2 (decode)</title></rect>
<text x="147.2" y="281.4" text-anchor="middle" font-size="8" class="muted">12.2</text>
<text x="147.2" y="296.0" text-anchor="end" font-size="9" class="fg" transform="rotate(-35 147.2,296.0)">yaml_rustler</text>
<rect x="181.6" y="283.2" width="56.8" height="2.8" class="bar-2"><title>fast_yaml: 20.7 (decode)</title></rect>
<text x="210.0" y="280.2" text-anchor="middle" font-size="8" class="muted">20.7</text>
<text x="210.0" y="296.0" text-anchor="end" font-size="9" class="fg" transform="rotate(-35 210.0,296.0)">fast_yaml</text>
<rect x="244.4" y="215.7" width="56.8" height="70.3" class="bar-3"><title>yamerl: 526.9 (decode)</title></rect>
<text x="272.8" y="212.7" text-anchor="middle" font-size="8" class="muted">526.9</text>
<text x="272.8" y="296.0" text-anchor="end" font-size="9" class="fg" transform="rotate(-35 272.8,296.0)">yamerl</text>
<text x="335.6" y="282.0" text-anchor="middle" font-size="8" class="faint">N/A</text>
<text x="335.6" y="296.0" text-anchor="end" font-size="9" class="fg" transform="rotate(-35 335.6,296.0)">ymlr</text>
<line x1="50.0" y1="286.0" x2="370.0" y2="286.0" class="axis" stroke-width="1"/>
<text x="570.0" y="204.0" text-anchor="middle" font-size="13" font-weight="bold" class="fg">YAML encode — 0.1K</text>
<line x1="430.0" y1="286.0" x2="750.0" y2="286.0" class="grid" stroke-width="1"/>
<text x="424.0" y="289.0" text-anchor="end" font-size="9" class="muted">0</text>
<line x1="430.0" y1="266.0" x2="750.0" y2="266.0" class="grid" stroke-width="1"/>
<text x="424.0" y="269.0" text-anchor="end" font-size="9" class="muted">2</text>
<line x1="430.0" y1="246.0" x2="750.0" y2="246.0" class="grid" stroke-width="1"/>
<text x="424.0" y="249.0" text-anchor="end" font-size="9" class="muted">4</text>
<line x1="430.0" y1="226.0" x2="750.0" y2="226.0" class="grid" stroke-width="1"/>
<text x="424.0" y="229.0" text-anchor="end" font-size="9" class="muted">6</text>
<line x1="430.0" y1="206.0" x2="750.0" y2="206.0" class="grid" stroke-width="1"/>
<text x="424.0" y="209.0" text-anchor="end" font-size="9" class="muted">8</text>
<rect x="436.0" y="275.0" width="56.8" height="11.0" class="bar-glazer"><title>glazer: 1.1 (encode)</title></rect>
<text x="464.4" y="272.0" text-anchor="middle" font-size="8" class="muted">1.1</text>
<text x="464.4" y="296.0" text-anchor="end" font-size="9" class="fg" font-weight="bold" transform="rotate(-35 464.4,296.0)">glazer</text>
<text x="527.2" y="282.0" text-anchor="middle" font-size="8" class="faint">N/A</text>
<text x="527.2" y="296.0" text-anchor="end" font-size="9" class="fg" transform="rotate(-35 527.2,296.0)">yaml_rustler</text>
<rect x="561.6" y="211.0" width="56.8" height="75.0" class="bar-2"><title>fast_yaml: 7.5 (encode)</title></rect>
<text x="590.0" y="208.0" text-anchor="middle" font-size="8" class="muted">7.5</text>
<text x="590.0" y="296.0" text-anchor="end" font-size="9" class="fg" transform="rotate(-35 590.0,296.0)">fast_yaml</text>
<text x="652.8" y="282.0" text-anchor="middle" font-size="8" class="faint">N/A</text>
<text x="652.8" y="296.0" text-anchor="end" font-size="9" class="fg" transform="rotate(-35 652.8,296.0)">yamerl</text>
<rect x="687.2" y="240.0" width="56.8" height="46.0" class="bar-4"><title>ymlr: 4.6 (encode)</title></rect>
<text x="715.6" y="237.0" text-anchor="middle" font-size="8" class="muted">4.6</text>
<text x="715.6" y="296.0" text-anchor="end" font-size="9" class="fg" transform="rotate(-35 715.6,296.0)">ymlr</text>
<line x1="430.0" y1="286.0" x2="750.0" y2="286.0" class="axis" stroke-width="1"/>
<text x="190.0" y="342.0" text-anchor="middle" font-size="13" font-weight="bold" class="fg">CSV decode — 1.3K</text>
<line x1="50.0" y1="424.0" x2="370.0" y2="424.0" class="grid" stroke-width="1"/>
<text x="44.0" y="427.0" text-anchor="end" font-size="9" class="muted">0</text>
<line x1="50.0" y1="404.0" x2="370.0" y2="404.0" class="grid" stroke-width="1"/>
<text x="44.0" y="407.0" text-anchor="end" font-size="9" class="muted">100</text>
<line x1="50.0" y1="384.0" x2="370.0" y2="384.0" class="grid" stroke-width="1"/>
<text x="44.0" y="387.0" text-anchor="end" font-size="9" class="muted">200</text>
<line x1="50.0" y1="364.0" x2="370.0" y2="364.0" class="grid" stroke-width="1"/>
<text x="44.0" y="367.0" text-anchor="end" font-size="9" class="muted">300</text>
<line x1="50.0" y1="344.0" x2="370.0" y2="344.0" class="grid" stroke-width="1"/>
<text x="44.0" y="347.0" text-anchor="end" font-size="9" class="muted">400</text>
<rect x="56.0" y="422.6" width="56.8" height="1.4" class="bar-glazer"><title>glazer: 6.8 (decode)</title></rect>
<text x="84.4" y="419.6" text-anchor="middle" font-size="8" class="muted">6.8</text>
<text x="84.4" y="434.0" text-anchor="end" font-size="9" class="fg" font-weight="bold" transform="rotate(-35 84.4,434.0)">glazer</text>
<rect x="118.8" y="418.8" width="56.8" height="5.2" class="bar-1"><title>rusty_csv: 26.2 (decode)</title></rect>
<text x="147.2" y="415.8" text-anchor="middle" font-size="8" class="muted">26.2</text>
<text x="147.2" y="434.0" text-anchor="end" font-size="9" class="fg" transform="rotate(-35 147.2,434.0)">rusty_csv</text>
<rect x="181.6" y="418.9" width="56.8" height="5.1" class="bar-2"><title>nimble_csv: 25.7 (decode)</title></rect>
<text x="210.0" y="415.9" text-anchor="middle" font-size="8" class="muted">25.7</text>
<text x="210.0" y="434.0" text-anchor="end" font-size="9" class="fg" transform="rotate(-35 210.0,434.0)">nimble_csv</text>
<rect x="244.4" y="409.9" width="56.8" height="14.1" class="bar-3"><title>csv: 70.3 (decode)</title></rect>
<text x="272.8" y="406.9" text-anchor="middle" font-size="8" class="muted">70.3</text>
<text x="272.8" y="434.0" text-anchor="end" font-size="9" class="fg" transform="rotate(-35 272.8,434.0)">csv</text>
<rect x="307.2" y="354.7" width="56.8" height="69.3" class="bar-4"><title>erl_csv: 346.6 (decode)</title></rect>
<text x="335.6" y="351.7" text-anchor="middle" font-size="8" class="muted">346.6</text>
<text x="335.6" y="434.0" text-anchor="end" font-size="9" class="fg" transform="rotate(-35 335.6,434.0)">erl_csv</text>
<line x1="50.0" y1="424.0" x2="370.0" y2="424.0" class="axis" stroke-width="1"/>
<text x="570.0" y="342.0" text-anchor="middle" font-size="13" font-weight="bold" class="fg">CSV encode — 1.3K</text>
<line x1="430.0" y1="424.0" x2="750.0" y2="424.0" class="grid" stroke-width="1"/>
<text x="424.0" y="427.0" text-anchor="end" font-size="9" class="muted">0</text>
<line x1="430.0" y1="397.3" x2="750.0" y2="397.3" class="grid" stroke-width="1"/>
<text x="424.0" y="400.3" text-anchor="end" font-size="9" class="muted">100</text>
<line x1="430.0" y1="370.7" x2="750.0" y2="370.7" class="grid" stroke-width="1"/>
<text x="424.0" y="373.7" text-anchor="end" font-size="9" class="muted">200</text>
<line x1="430.0" y1="344.0" x2="750.0" y2="344.0" class="grid" stroke-width="1"/>
<text x="424.0" y="347.0" text-anchor="end" font-size="9" class="muted">300</text>
<rect x="436.0" y="423.4" width="56.8" height="0.6" class="bar-glazer"><title>glazer: 2.4 (encode)</title></rect>
<text x="464.4" y="420.4" text-anchor="middle" font-size="8" class="muted">2.4</text>
<text x="464.4" y="434.0" text-anchor="end" font-size="9" class="fg" font-weight="bold" transform="rotate(-35 464.4,434.0)">glazer</text>
<text x="527.2" y="420.0" text-anchor="middle" font-size="8" class="faint">N/A</text>
<text x="527.2" y="434.0" text-anchor="end" font-size="9" class="fg" transform="rotate(-35 527.2,434.0)">rusty_csv</text>
<rect x="561.6" y="414.3" width="56.8" height="9.7" class="bar-2"><title>nimble_csv: 36.3 (encode)</title></rect>
<text x="590.0" y="411.3" text-anchor="middle" font-size="8" class="muted">36.3</text>
<text x="590.0" y="434.0" text-anchor="end" font-size="9" class="fg" transform="rotate(-35 590.0,434.0)">nimble_csv</text>
<rect x="624.4" y="386.2" width="56.8" height="37.8" class="bar-3"><title>csv: 141.7 (encode)</title></rect>
<text x="652.8" y="383.2" text-anchor="middle" font-size="8" class="muted">141.7</text>
<text x="652.8" y="434.0" text-anchor="end" font-size="9" class="fg" transform="rotate(-35 652.8,434.0)">csv</text>
<rect x="687.2" y="357.2" width="56.8" height="66.8" class="bar-4"><title>erl_csv: 250.6 (encode)</title></rect>
<text x="715.6" y="354.2" text-anchor="middle" font-size="8" class="muted">250.6</text>
<text x="715.6" y="434.0" text-anchor="end" font-size="9" class="fg" transform="rotate(-35 715.6,434.0)">erl_csv</text>
<line x1="430.0" y1="424.0" x2="750.0" y2="424.0" class="axis" stroke-width="1"/>
</svg>